/* XPM */
static char *dialog_apply[] = {
/* columns rows colors chars-per-pixel */
"24 24 123 2 ",
"   c #42770B",
".  c #40730D",
"X  c #44750C",
"o  c #44750E",
"O  c #44770E",
"+  c #44790C",
"@  c #447A0D",
"#  c #467A0D",
"$  c #44790E",
"%  c #45790E",
"&  c #47790E",
"*  c #447A0E",
"=  c #457A0E",
"-  c #457B0E",
";  c #477B0E",
":  c #467A0F",
">  c #477A0F",
",  c #467B0F",
"<  c #477B0F",
"1  c #467A10",
"2  c #477A10",
"3  c #487B10",
"4  c #487D11",
"5  c #497C12",
"6  c #497D14",
"7  c #497D15",
"8  c #4B7E16",
"9  c #4D8016",
"0  c #4F8118",
"q  c #4F801A",
"w  c #4E811A",
"e  c #55841A",
"r  c #57861C",
"t  c #588822",
"y  c #5B8A24",
"u  c #5C8928",
"i  c #5C8A28",
"p  c #64912B",
"a  c #639132",
"s  c #689332",
"d  c #6E9732",
"f  c #6B9639",
"g  c #749C31",
"h  c #709934",
"j  c #749D3D",
"k  c #769E41",
"l  c #78A040",
"z  c #7EA544",
"x  c #7CA249",
"c  c #7EA34A",
"v  c #81A636",
"b  c #82A63E",
"n  c #83A938",
"m  c #84AA3A",
"M  c #86AC3B",
"N  c #84A83C",
"B  c #86A93F",
"V  c #89AE3F",
"C  c #84A841",
"Z  c #86AA47",
"A  c #8AAD45",
"S  c #84A84E",
"D  c #8EAF4A",
"F  c #88AC4D",
"G  c #8BB042",
"H  c #8EB343",
"J  c #8DB344",
"K  c #8EB146",
"L  c #8FB24A",
"P  c #8FB34A",
"I  c #92B749",
"U  c #91B54A",
"Y  c #90B24C",
"T  c #92B44E",
"R  c #93B54E",
"E  c #93B849",
"W  c #96BB4B",
"Q  c #87AA51",
"!  c #86AB51",
"~  c #8FB055",
"^  c #92B352",
"/  c #97BB51",
"(  c #96B852",
")  c #93B459",
"_  c #98B858",
"`  c #98B85A",
"'  c #9CBB5C",
"]  c #9DBC5F",
"[  c #95B665",
"{  c #98B968",
"}  c #9FBF68",
"|  c #A0BE64",
" . c #A1BF72",
".. c #9BC050",
"X. c #9CC054",
"o. c #9FC25A",
"O. c #A0C457",
"+. c #A1C160",
"@. c #A1C062",
"#. c #A1C063",
"$. c #A3C168",
"%. c #A5C26B",
"&. c #A7C669",
"*. c #A4C16F",
"=. c #AACA68",
"-. c #A5C273",
";. c #A7C375",
":. c #ACC777",
">. c #B0CA7A",
",. c #B3CF7B",
"<. c #B1CC7C",
"1. c #B5D27A",
"2. c #B5CF80",
"3. c #B8D282",
"4. c #BCD38E",
"5. c #BED590",
"6. c #BCD397",
"7. c #BDD498",
"8. c #C2D898",
"9. c #C8DD9E",
"0. c #CADFA0",
"q. c #D1E3AC",
"w. c None",
/* pixels */
"w.w.w.w.w.w.w.w.w.w.w.w.w.w.w.w.w.w.w.w.w.w.w.w.",
"w.w.w.w.w.w.w.w.w.w.w.w.w.w.w.w.w.w.w.w.w.w.w.w.",
"w.w.w.w.w.w.w.w.w.w.w.w.w.w.w.w.w.w.w.w.w.w.w.w.",
"w.w.w.w.w.w.w.w.w.w.w.w.w.w.w.w.- 6 w.w.w.w.w.w.",
"w.w.w.w.w.w.w.w.w.w.w.w.w.w.w.- 7.6.s 4 w.w.w.w.",
"w.w.w.w.w.w.w.w.w.w.w.w.w.w.- x 0.1.q.{ 6 w.w.w.",
"w.w.w.w.w.w.w.w.w.w.w.w.w.w.8 8.=.O.9.f w.w.w.w.",
"w.w.w.w.w.w.w.w.w.w.w.w.w.- [ 3...,. .- w.w.w.w.",
"w.w.w.w.w.w.w.w.w.w.w.w.w.u 5./ o.4.w w.w.w.w.w.",
"w.w.w.w.w.w.w.w.w.w.w.w.- ;.=.W 3.c - w.w.w.w.w.",
"w.w.w.w.w.w.w.w.w.w.w.- k <.E #.-.2 w.w.w.w.w.w.",
"w.w.w.w.- - w.w.w.w.w.8 :./ I <.u w.w.w.w.w.w.w.",
"w.w.w.- S -.y 3 w.w.- Q | H | ! 3 w.w.w.w.w.w.w.",
"w.w.- j $.( %.j 2   t %.H I $.6 w.w.w.w.w.w.w.w.",
"w.w.- z | H A ' ^ 8 ) T V ] s - w.w.w.w.w.w.w.w.",
"w.w.w.2 p ` L M T ` T M L F - w.w.w.w.w.w.w.w.w.",
"w.w.w.w.- 9 Z T N N n M T 8 w.w.w.w.w.w.w.w.w.w.",
"w.w.w.w.w.w.- h D N v A d - w.w.w.w.w.w.w.w.w.w.",
"w.w.w.w.w.w.w.- r C M b - w.w.w.w.w.w.w.w.w.w.w.",
"w.w.w.w.w.w.w.w.o 3 g e . w.w.w.w.w.w.w.w.w.w.w.",
"w.w.w.w.w.w.w.w.w.w.O O w.w.w.w.w.w.w.w.w.w.w.w.",
"w.w.w.w.w.w.w.w.w.w.w.w.w.w.w.w.w.w.w.w.w.w.w.w.",
"w.w.w.w.w.w.w.w.w.w.w.w.w.w.w.w.w.w.w.w.w.w.w.w.",
"w.w.w.w.w.w.w.w.w.w.w.w.w.w.w.w.w.w.w.w.w.w.w.w."
};
